<svg viewBox="0 0 800 600" xmlns="http://www.w3.org/2000/svg" preserveAspectRatio="xMidYMid slice" role="img">
  <defs>
    <linearGradient id="sky" x1="0" y1="0" x2="0" y2="1">
      <stop offset="0%"  stop-color="#041935"/>
      <stop offset="55%" stop-color="#0D3E6F"/>
      <stop offset="100%" stop-color="#06284C"/>
    </linearGradient>
    <radialGradient id="sunGlow" cx="50%" cy="100%" r="55%">
      <stop offset="0%"  stop-color="#FF6B00"   stop-opacity="0.65"/>
      <stop offset="40%" stop-color="#FFA15A" stop-opacity="0.30"/>
      <stop offset="100%" stop-color="#FF6B00"  stop-opacity="0"/>
    </radialGradient>
    <linearGradient id="water" x1="0" y1="0" x2="0" y2="1">
      <stop offset="0%"  stop-color="#0D3E6F"/>
      <stop offset="100%" stop-color="#041935"/>
    </linearGradient>

  </defs>
      <rect width="800" height="600" fill="url(#sky)"/>
  <circle cx="77" cy="66" r="0.6" fill="#FFFFFF" opacity="0.6"/>
<circle cx="193" cy="177" r="1.0" fill="#FFFFFF" opacity="0.5"/>
<circle cx="641" cy="38" r="0.8" fill="#FFFFFF" opacity="0.8"/>
<circle cx="673" cy="221" r="1.0" fill="#FFFFFF" opacity="0.8"/>
<circle cx="534" cy="157" r="0.6" fill="#FFFFFF" opacity="0.4"/>
<circle cx="392" cy="258" r="1.0" fill="#FFFFFF" opacity="0.8"/>
<circle cx="453" cy="104" r="0.8" fill="#FFFFFF" opacity="0.5"/>
<circle cx="256" cy="32" r="0.8" fill="#FFFFFF" opacity="0.6"/>
<circle cx="197" cy="89" r="1.0" fill="#FFFFFF" opacity="0.5"/>
<circle cx="476" cy="232" r="1.0" fill="#FFFFFF" opacity="0.6"/>
<circle cx="390" cy="248" r="0.8" fill="#FFFFFF" opacity="0.8"/>
<circle cx="752" cy="256" r="0.8" fill="#FFFFFF" opacity="0.8"/>
<circle cx="305" cy="275" r="1.0" fill="#FFFFFF" opacity="0.8"/>
<circle cx="492" cy="199" r="1.2" fill="#FFFFFF" opacity="0.8"/>
<circle cx="694" cy="133" r="1.0" fill="#FFFFFF" opacity="0.5"/>
<circle cx="651" cy="157" r="1.2" fill="#FFFFFF" opacity="0.6"/>
<circle cx="330" cy="278" r="1.2" fill="#FFFFFF" opacity="0.6"/>
<circle cx="768" cy="126" r="1.2" fill="#FFFFFF" opacity="0.6"/>
<circle cx="720" cy="58" r="1.0" fill="#FFFFFF" opacity="0.4"/>
<circle cx="215" cy="74" r="0.6" fill="#FFFFFF" opacity="0.4"/>
<circle cx="299" cy="136" r="0.6" fill="#FFFFFF" opacity="0.5"/>
<circle cx="292" cy="145" r="0.8" fill="#FFFFFF" opacity="0.4"/>
  <ellipse cx="400" cy="490" rx="320" ry="100" fill="url(#sunGlow)"/>
  <circle cx="400" cy="470" r="22" fill="#FF6B00" opacity="0.85"/>


    <!-- Distant flat Texas horizon -->
    <rect x="0" y="490" width="800" height="3" fill="#4E6575" opacity="0.5"/>

      <g fill="#0D3E6F">
    <!-- Bank of America Plaza (curved tapered shape) -->
    <path d="M120 320 L160 320 L170 290 L160 530 L120 530 L110 290 Z"/>
    <!-- Trapezoidal building -->
    <rect x="180" y="350" width="55" height="180"/>
    <!-- JPMorgan-style stepped building -->
    <rect x="245" y="340" width="60" height="190"/>
    <rect x="255" y="320" width="40" height="20"/>
    <!-- Slim modern tower -->
    <rect x="315" y="300" width="38" height="230"/>
    <rect x="320" y="280" width="28" height="20"/>
    <!-- Right side cluster -->
    <rect x="460" y="360" width="44" height="170"/>
    <rect x="510" y="330" width="50" height="200"/>
    <rect x="565" y="350" width="38" height="180"/>
    <rect x="610" y="370" width="50" height="160"/>
    <rect x="665" y="390" width="40" height="140"/>
    <rect x="710" y="410" width="60" height="120"/>
  </g>
  <rect x="112" y="302" width="2" height="3" fill="#FFD37A" opacity="0.85"/>
<rect x="124" y="302" width="2" height="3" fill="#FFD37A" opacity="0.85"/>
<rect x="142" y="302" width="2" height="3" fill="#FFD37A" opacity="0.85"/>
<rect x="118" y="310" width="2" height="3" fill="#FFD37A" opacity="0.85"/>
<rect x="130" y="310" width="2" height="3" fill="#FFD37A" opacity="0.85"/>
<rect x="148" y="310" width="2" height="3" fill="#FFD37A" opacity="0.85"/>
<rect x="130" y="326" width="2" height="3" fill="#FFD37A" opacity="0.85"/>
<rect x="112" y="334" width="2" height="3" fill="#FFD37A" opacity="0.85"/>
<rect x="148" y="334" width="2" height="3" fill="#FFD37A" opacity="0.85"/>
<rect x="112" y="342" width="2" height="3" fill="#FFD37A" opacity="0.85"/>
<rect x="154" y="342" width="2" height="3" fill="#FFD37A" opacity="0.85"/>
<rect x="142" y="366" width="2" height="3" fill="#FFD37A" opacity="0.85"/>
<rect x="148" y="366" width="2" height="3" fill="#FFD37A" opacity="0.85"/>
<rect x="112" y="390" width="2" height="3" fill="#FFD37A" opacity="0.85"/>
<rect x="112" y="398" width="2" height="3" fill="#FFD37A" opacity="0.85"/>
<rect x="160" y="398" width="2" height="3" fill="#FFD37A" opacity="0.85"/>
<rect x="118" y="406" width="2" height="3" fill="#FFD37A" opacity="0.85"/>
<rect x="130" y="414" width="2" height="3" fill="#FFD37A" opacity="0.85"/>
<rect x="136" y="414" width="2" height="3" fill="#FFD37A" opacity="0.85"/>
<rect x="160" y="414" width="2" height="3" fill="#FFD37A" opacity="0.85"/>
<rect x="136" y="422" width="2" height="3" fill="#FFD37A" opacity="0.85"/>
<rect x="136" y="438" width="2" height="3" fill="#FFD37A" opacity="0.85"/>
<rect x="136" y="446" width="2" height="3" fill="#FFD37A" opacity="0.85"/>
<rect x="148" y="446" width="2" height="3" fill="#FFD37A" opacity="0.85"/>
<rect x="142" y="454" width="2" height="3" fill="#FFD37A" opacity="0.85"/>
<rect x="124" y="486" width="2" height="3" fill="#FFD37A" opacity="0.85"/>
<rect x="130" y="486" width="2" height="3" fill="#FFD37A" opacity="0.85"/>
<rect x="142" y="486" width="2" height="3" fill="#FFD37A" opacity="0.85"/>
<rect x="112" y="494" width="2" height="3" fill="#FFD37A" opacity="0.85"/>
<rect x="130" y="494" width="2" height="3" fill="#FFD37A" opacity="0.85"/>
<rect x="154" y="494" width="2" height="3" fill="#FFD37A" opacity="0.85"/>
<rect x="160" y="502" width="2" height="3" fill="#FFD37A" opacity="0.85"/>
<rect x="118" y="518" width="2" height="3" fill="#FFD37A" opacity="0.85"/>
  <rect x="206" y="354" width="2" height="3" fill="#FFD37A" opacity="0.85"/>
<rect x="224" y="362" width="2" height="3" fill="#FFD37A" opacity="0.85"/>
<rect x="182" y="370" width="2" height="3" fill="#FFD37A" opacity="0.85"/>
<rect x="212" y="370" width="2" height="3" fill="#FFD37A" opacity="0.85"/>
<rect x="218" y="370" width="2" height="3" fill="#FFD37A" opacity="0.85"/>
<rect x="182" y="378" width="2" height="3" fill="#FFD37A" opacity="0.85"/>
<rect x="188" y="386" width="2" height="3" fill="#FFD37A" opacity="0.85"/>
<rect x="182" y="394" width="2" height="3" fill="#FFD37A" opacity="0.85"/>
<rect x="218" y="402" width="2" height="3" fill="#FFD37A" opacity="0.85"/>
<rect x="182" y="418" width="2" height="3" fill="#FFD37A" opacity="0.85"/>
<rect x="206" y="418" width="2" height="3" fill="#FFD37A" opacity="0.85"/>
<rect x="182" y="434" width="2" height="3" fill="#FFD37A" opacity="0.85"/>
<rect x="212" y="434" width="2" height="3" fill="#FFD37A" opacity="0.85"/>
<rect x="218" y="434" width="2" height="3" fill="#FFD37A" opacity="0.85"/>
<rect x="194" y="442" width="2" height="3" fill="#FFD37A" opacity="0.85"/>
<rect x="194" y="482" width="2" height="3" fill="#FFD37A" opacity="0.85"/>
<rect x="194" y="490" width="2" height="3" fill="#FFD37A" opacity="0.85"/>
<rect x="182" y="506" width="2" height="3" fill="#FFD37A" opacity="0.85"/>
<rect x="224" y="506" width="2" height="3" fill="#FFD37A" opacity="0.85"/>
<rect x="224" y="514" width="2" height="3" fill="#FFD37A" opacity="0.85"/>
  <rect x="283" y="332" width="2" height="3" fill="#FFD37A" opacity="0.85"/>
<rect x="295" y="364" width="2" height="3" fill="#FFD37A" opacity="0.85"/>
<rect x="271" y="372" width="2" height="3" fill="#FFD37A" opacity="0.85"/>
<rect x="271" y="396" width="2" height="3" fill="#FFD37A" opacity="0.85"/>
<rect x="295" y="396" width="2" height="3" fill="#FFD37A" opacity="0.85"/>
<rect x="253" y="404" width="2" height="3" fill="#FFD37A" opacity="0.85"/>
<rect x="259" y="404" width="2" height="3" fill="#FFD37A" opacity="0.85"/>
<rect x="295" y="404" width="2" height="3" fill="#FFD37A" opacity="0.85"/>
<rect x="259" y="412" width="2" height="3" fill="#FFD37A" opacity="0.85"/>
<rect x="247" y="420" width="2" height="3" fill="#FFD37A" opacity="0.85"/>
<rect x="271" y="428" width="2" height="3" fill="#FFD37A" opacity="0.85"/>
<rect x="283" y="428" width="2" height="3" fill="#FFD37A" opacity="0.85"/>
<rect x="301" y="428" width="2" height="3" fill="#FFD37A" opacity="0.85"/>
<rect x="271" y="444" width="2" height="3" fill="#FFD37A" opacity="0.85"/>
<rect x="247" y="452" width="2" height="3" fill="#FFD37A" opacity="0.85"/>
<rect x="295" y="452" width="2" height="3" fill="#FFD37A" opacity="0.85"/>
<rect x="277" y="476" width="2" height="3" fill="#FFD37A" opacity="0.85"/>
<rect x="283" y="476" width="2" height="3" fill="#FFD37A" opacity="0.85"/>
<rect x="289" y="476" width="2" height="3" fill="#FFD37A" opacity="0.85"/>
<rect x="289" y="492" width="2" height="3" fill="#FFD37A" opacity="0.85"/>
<rect x="295" y="492" width="2" height="3" fill="#FFD37A" opacity="0.85"/>
<rect x="295" y="508" width="2" height="3" fill="#FFD37A" opacity="0.85"/>
<rect x="265" y="524" width="2" height="3" fill="#FFD37A" opacity="0.85"/>
<rect x="295" y="524" width="2" height="3" fill="#FFD37A" opacity="0.85"/>
  <rect x="329" y="316" width="2" height="3" fill="#FFD37A" opacity="0.85"/>
<rect x="335" y="332" width="2" height="3" fill="#FFD37A" opacity="0.85"/>
<rect x="323" y="348" width="2" height="3" fill="#FFD37A" opacity="0.85"/>
<rect x="335" y="348" width="2" height="3" fill="#FFD37A" opacity="0.85"/>
<rect x="323" y="356" width="2" height="3" fill="#FFD37A" opacity="0.85"/>
<rect x="335" y="364" width="2" height="3" fill="#FFD37A" opacity="0.85"/>
<rect x="329" y="372" width="2" height="3" fill="#FFD37A" opacity="0.85"/>
<rect x="317" y="380" width="2" height="3" fill="#FFD37A" opacity="0.85"/>
<rect x="329" y="396" width="2" height="3" fill="#FFD37A" opacity="0.85"/>
<rect x="341" y="404" width="2" height="3" fill="#FFD37A" opacity="0.85"/>
<rect x="317" y="484" width="2" height="3" fill="#FFD37A" opacity="0.85"/>
<rect x="317" y="492" width="2" height="3" fill="#FFD37A" opacity="0.85"/>
<rect x="341" y="492" width="2" height="3" fill="#FFD37A" opacity="0.85"/>
<rect x="347" y="500" width="2" height="3" fill="#FFD37A" opacity="0.85"/>
<rect x="347" y="508" width="2" height="3" fill="#FFD37A" opacity="0.85"/>
<rect x="335" y="524" width="2" height="3" fill="#FFD37A" opacity="0.85"/>
  <rect x="468" y="364" width="2" height="3" fill="#FFD37A" opacity="0.85"/>
<rect x="492" y="364" width="2" height="3" fill="#FFD37A" opacity="0.85"/>
<rect x="486" y="388" width="2" height="3" fill="#FFD37A" opacity="0.85"/>
<rect x="468" y="404" width="2" height="3" fill="#FFD37A" opacity="0.85"/>
<rect x="480" y="412" width="2" height="3" fill="#FFD37A" opacity="0.85"/>
<rect x="492" y="412" width="2" height="3" fill="#FFD37A" opacity="0.85"/>
<rect x="462" y="436" width="2" height="3" fill="#FFD37A" opacity="0.85"/>
<rect x="486" y="444" width="2" height="3" fill="#FFD37A" opacity="0.85"/>
<rect x="486" y="452" width="2" height="3" fill="#FFD37A" opacity="0.85"/>
<rect x="492" y="452" width="2" height="3" fill="#FFD37A" opacity="0.85"/>
<rect x="498" y="460" width="2" height="3" fill="#FFD37A" opacity="0.85"/>
<rect x="462" y="468" width="2" height="3" fill="#FFD37A" opacity="0.85"/>
<rect x="498" y="476" width="2" height="3" fill="#FFD37A" opacity="0.85"/>
<rect x="468" y="500" width="2" height="3" fill="#FFD37A" opacity="0.85"/>
<rect x="486" y="508" width="2" height="3" fill="#FFD37A" opacity="0.85"/>
<rect x="492" y="516" width="2" height="3" fill="#FFD37A" opacity="0.85"/>
  <rect x="512" y="342" width="2" height="3" fill="#FFD37A" opacity="0.85"/>
<rect x="536" y="350" width="2" height="3" fill="#FFD37A" opacity="0.85"/>
<rect x="518" y="366" width="2" height="3" fill="#FFD37A" opacity="0.85"/>
<rect x="524" y="374" width="2" height="3" fill="#FFD37A" opacity="0.85"/>
<rect x="542" y="374" width="2" height="3" fill="#FFD37A" opacity="0.85"/>
<rect x="548" y="382" width="2" height="3" fill="#FFD37A" opacity="0.85"/>
<rect x="548" y="398" width="2" height="3" fill="#FFD37A" opacity="0.85"/>
<rect x="512" y="406" width="2" height="3" fill="#FFD37A" opacity="0.85"/>
<rect x="530" y="414" width="2" height="3" fill="#FFD37A" opacity="0.85"/>
<rect x="518" y="422" width="2" height="3" fill="#FFD37A" opacity="0.85"/>
<rect x="542" y="422" width="2" height="3" fill="#FFD37A" opacity="0.85"/>
<rect x="548" y="422" width="2" height="3" fill="#FFD37A" opacity="0.85"/>
<rect x="542" y="446" width="2" height="3" fill="#FFD37A" opacity="0.85"/>
<rect x="518" y="454" width="2" height="3" fill="#FFD37A" opacity="0.85"/>
<rect x="524" y="462" width="2" height="3" fill="#FFD37A" opacity="0.85"/>
<rect x="524" y="470" width="2" height="3" fill="#FFD37A" opacity="0.85"/>
<rect x="554" y="478" width="2" height="3" fill="#FFD37A" opacity="0.85"/>
<rect x="518" y="486" width="2" height="3" fill="#FFD37A" opacity="0.85"/>
<rect x="518" y="510" width="2" height="3" fill="#FFD37A" opacity="0.85"/>
<rect x="518" y="526" width="2" height="3" fill="#FFD37A" opacity="0.85"/>
<rect x="524" y="526" width="2" height="3" fill="#FFD37A" opacity="0.85"/>
<rect x="530" y="526" width="2" height="3" fill="#FFD37A" opacity="0.85"/>
  <rect x="579" y="362" width="2" height="3" fill="#FFD37A" opacity="0.85"/>
<rect x="567" y="378" width="2" height="3" fill="#FFD37A" opacity="0.85"/>
<rect x="567" y="394" width="2" height="3" fill="#FFD37A" opacity="0.85"/>
<rect x="579" y="402" width="2" height="3" fill="#FFD37A" opacity="0.85"/>
<rect x="591" y="402" width="2" height="3" fill="#FFD37A" opacity="0.85"/>
<rect x="567" y="442" width="2" height="3" fill="#FFD37A" opacity="0.85"/>
<rect x="579" y="450" width="2" height="3" fill="#FFD37A" opacity="0.85"/>
<rect x="597" y="450" width="2" height="3" fill="#FFD37A" opacity="0.85"/>
<rect x="597" y="474" width="2" height="3" fill="#FFD37A" opacity="0.85"/>
<rect x="573" y="482" width="2" height="3" fill="#FFD37A" opacity="0.85"/>
<rect x="567" y="490" width="2" height="3" fill="#FFD37A" opacity="0.85"/>
<rect x="573" y="490" width="2" height="3" fill="#FFD37A" opacity="0.85"/>
<rect x="585" y="514" width="2" height="3" fill="#FFD37A" opacity="0.85"/>
  <rect x="624" y="398" width="2" height="3" fill="#FFD37A" opacity="0.85"/>
<rect x="612" y="430" width="2" height="3" fill="#FFD37A" opacity="0.85"/>
<rect x="630" y="430" width="2" height="3" fill="#FFD37A" opacity="0.85"/>
<rect x="654" y="454" width="2" height="3" fill="#FFD37A" opacity="0.85"/>
<rect x="618" y="486" width="2" height="3" fill="#FFD37A" opacity="0.85"/>
<rect x="624" y="494" width="2" height="3" fill="#FFD37A" opacity="0.85"/>
<rect x="618" y="502" width="2" height="3" fill="#FFD37A" opacity="0.85"/>
<rect x="630" y="510" width="2" height="3" fill="#FFD37A" opacity="0.85"/>
<rect x="648" y="510" width="2" height="3" fill="#FFD37A" opacity="0.85"/>
<rect x="642" y="526" width="2" height="3" fill="#FFD37A" opacity="0.85"/>
  <rect x="697" y="410" width="2" height="3" fill="#FFD37A" opacity="0.85"/>
<rect x="673" y="450" width="2" height="3" fill="#FFD37A" opacity="0.85"/>
<rect x="667" y="466" width="2" height="3" fill="#FFD37A" opacity="0.85"/>
<rect x="667" y="482" width="2" height="3" fill="#FFD37A" opacity="0.85"/>
<rect x="697" y="482" width="2" height="3" fill="#FFD37A" opacity="0.85"/>
<rect x="679" y="490" width="2" height="3" fill="#FFD37A" opacity="0.85"/>
<rect x="673" y="506" width="2" height="3" fill="#FFD37A" opacity="0.85"/>
<rect x="691" y="506" width="2" height="3" fill="#FFD37A" opacity="0.85"/>
<rect x="679" y="522" width="2" height="3" fill="#FFD37A" opacity="0.85"/>
  <rect x="748" y="430" width="2" height="3" fill="#FFD37A" opacity="0.85"/>
<rect x="736" y="438" width="2" height="3" fill="#FFD37A" opacity="0.85"/>
<rect x="766" y="438" width="2" height="3" fill="#FFD37A" opacity="0.85"/>
<rect x="742" y="462" width="2" height="3" fill="#FFD37A" opacity="0.85"/>
<rect x="724" y="470" width="2" height="3" fill="#FFD37A" opacity="0.85"/>
<rect x="754" y="470" width="2" height="3" fill="#FFD37A" opacity="0.85"/>
<rect x="736" y="478" width="2" height="3" fill="#FFD37A" opacity="0.85"/>
<rect x="742" y="478" width="2" height="3" fill="#FFD37A" opacity="0.85"/>
<rect x="760" y="478" width="2" height="3" fill="#FFD37A" opacity="0.85"/>
<rect x="766" y="478" width="2" height="3" fill="#FFD37A" opacity="0.85"/>
<rect x="742" y="494" width="2" height="3" fill="#FFD37A" opacity="0.85"/>
<rect x="760" y="518" width="2" height="3" fill="#FFD37A" opacity="0.85"/>
<rect x="748" y="526" width="2" height="3" fill="#FFD37A" opacity="0.85"/>
    <g fill="#06284C">
  <rect x="395" y="240" width="10" height="290"/>
  <circle cx="400" cy="235" r="38" fill="#06284C"/>
  <circle cx="400" cy="235" r="32" fill="none" stroke="#FF6B00" stroke-width="1.5" opacity="0.7"/>
</g>
<!-- Sphere window lights pattern (dots) -->
<g fill="#FFD37A" opacity="0.9">
  <circle cx="385" cy="220" r="1.4"/>
  <circle cx="395" cy="215" r="1.4"/>
  <circle cx="405" cy="215" r="1.4"/>
  <circle cx="415" cy="220" r="1.4"/>
  <circle cx="380" cy="235" r="1.4"/>
  <circle cx="392" cy="232" r="1.4"/>
  <circle cx="408" cy="232" r="1.4"/>
  <circle cx="420" cy="235" r="1.4"/>
  <circle cx="385" cy="250" r="1.4"/>
  <circle cx="395" cy="253" r="1.4"/>
  <circle cx="405" cy="253" r="1.4"/>
  <circle cx="415" cy="250" r="1.4"/>
</g>
<!-- antenna -->
<line x1="400" y1="197" x2="400" y2="170" stroke="#06284C" stroke-width="2"/>
<circle cx="400" cy="170" r="2" fill="#FF6B00"/>

    <!-- Ground line -->
    <rect y="530" width="800" height="70" fill="#041935"/>
    <!-- subtle ground glow toward sun -->
    <ellipse cx="400" cy="535" rx="380" ry="6" fill="#FF6B00" opacity="0.18"/>

    <!-- Texas lone star accent (small, top right) -->
    <g transform="translate(740,80)" fill="#FF6B00" opacity="0.85">
      <polygon points="0,-12 3.6,-3.7 12,-3.7 5.2,2.4 7.6,11 0,5.5 -7.6,11 -5.2,2.4 -12,-3.7 -3.6,-3.7"/>
    </g>
</svg>
