<svg width="278" height="64" viewBox="0 0 278 64" fill="none" xmlns="http://www.w3.org/2000/svg">
<path d="M46.995 23.875C46.995 27.255 44.255 29.985 40.885 29.985C37.505 29.985 34.775 27.245 34.775 23.875C34.775 20.505 37.515 17.765 40.885 17.765C44.255 17.765 46.995 20.505 46.995 23.875ZM24.645 17.765C28.025 17.765 30.755 20.505 30.755 23.875C30.755 27.245 28.015 29.985 24.645 29.985C21.275 29.985 18.535 27.245 18.535 23.875C18.535 20.505 21.265 17.765 24.645 17.765ZM10.965 21.305C12.845 21.305 14.365 22.825 14.365 24.705C14.365 26.585 12.845 28.105 10.965 28.105C9.085 28.105 7.565 26.585 7.565 24.705C7.565 22.825 9.085 21.305 10.965 21.305ZM57.995 24.705C57.995 26.585 56.475 28.105 54.595 28.105C52.715 28.105 51.195 26.585 51.195 24.705C51.195 22.825 52.715 21.305 54.595 21.305C56.475 21.305 57.995 22.825 57.995 24.705ZM2.945 22.745C4.025 22.745 4.905 23.625 4.905 24.705C4.905 25.785 4.025 26.665 2.945 26.665C1.865 26.665 0.985001 25.785 0.985001 24.705C0.985001 23.625 1.865 22.745 2.945 22.745ZM64.575 24.705C64.575 25.785 63.695 26.665 62.615 26.665C61.535 26.665 60.655 25.785 60.655 24.705C60.655 23.625 61.535 22.745 62.615 22.745C63.695 22.745 64.575 23.625 64.575 24.705ZM43.475 10.185C43.475 12.065 41.955 13.585 40.075 13.585C38.195 13.585 36.675 12.065 36.675 10.185C36.675 8.305 38.195 6.785 40.075 6.785C41.955 6.785 43.475 8.305 43.475 10.185ZM40.075 57.215C38.195 57.215 36.675 55.695 36.675 53.815C36.675 51.935 38.195 50.415 40.075 50.415C41.955 50.415 43.475 51.935 43.475 53.815C43.475 55.695 41.955 57.215 40.075 57.215ZM42.035 2.165C42.035 3.245 41.155 4.125 40.075 4.125C38.995 4.125 38.115 3.245 38.115 2.165C38.115 1.085 38.985 0.205002 40.075 0.205002C41.165 0.205002 42.035 1.085 42.035 2.165ZM40.075 63.795C38.995 63.795 38.115 62.915 38.115 61.835C38.115 60.755 38.995 59.875 40.075 59.875C41.155 59.875 42.035 60.755 42.035 61.835C42.035 62.915 41.155 63.795 40.075 63.795ZM40.885 46.235C37.505 46.235 34.775 43.495 34.775 40.125C34.775 36.745 37.515 34.015 40.885 34.015C44.265 34.015 46.995 36.755 46.995 40.125C46.995 43.495 44.255 46.235 40.885 46.235ZM18.525 40.115C18.525 36.735 21.265 34.005 24.635 34.005C28.005 34.005 30.745 36.745 30.745 40.115C30.745 43.495 28.005 46.225 24.635 46.225C21.265 46.225 18.525 43.495 18.525 40.115ZM7.565 39.295C7.565 37.415 9.085 35.895 10.965 35.895C12.845 35.895 14.365 37.415 14.365 39.295C14.365 41.175 12.845 42.695 10.965 42.695C9.085 42.695 7.565 41.175 7.565 39.295ZM54.585 42.695C52.705 42.695 51.185 41.175 51.185 39.295C51.185 37.415 52.705 35.895 54.585 35.895C56.465 35.895 57.985 37.415 57.985 39.295C57.985 41.175 56.465 42.695 54.585 42.695ZM0.985001 39.295C0.985001 38.215 1.865 37.335 2.945 37.335C4.025 37.335 4.905 38.205 4.905 39.295C4.905 40.385 4.025 41.255 2.945 41.255C1.865 41.255 0.985001 40.375 0.985001 39.295ZM62.615 41.255C61.535 41.255 60.655 40.375 60.655 39.295C60.655 38.215 61.535 37.335 62.615 37.335C63.695 37.335 64.575 38.215 64.575 39.295C64.575 40.375 63.695 41.255 62.615 41.255ZM25.485 6.785C27.365 6.785 28.885 8.305 28.885 10.185C28.885 12.065 27.365 13.585 25.485 13.585C23.605 13.585 22.085 12.065 22.085 10.185C22.085 8.305 23.605 6.785 25.485 6.785ZM22.085 53.805C22.085 51.925 23.605 50.405 25.485 50.405C27.365 50.405 28.885 51.925 28.885 53.805C28.885 55.685 27.365 57.205 25.485 57.205C23.605 57.215 22.085 55.685 22.085 53.805ZM25.485 0.205002C26.565 0.205002 27.445 1.085 27.445 2.165C27.445 3.245 26.565 4.125 25.485 4.125C24.405 4.125 23.525 3.245 23.525 2.165C23.525 1.085 24.405 0.205002 25.485 0.205002ZM23.525 61.835C23.525 60.755 24.405 59.875 25.485 59.875C26.565 59.875 27.445 60.755 27.445 61.835C27.445 62.915 26.565 63.795 25.485 63.795C24.405 63.795 23.525 62.915 23.525 61.835ZM57.995 10.185C57.995 12.065 56.475 13.585 54.595 13.585C52.715 13.585 51.195 12.065 51.195 10.185C51.195 8.305 52.715 6.785 54.595 6.785C56.475 6.785 57.995 8.305 57.995 10.185ZM54.585 57.215C52.705 57.215 51.185 55.695 51.185 53.815C51.185 51.935 52.705 50.415 54.585 50.415C56.465 50.415 57.985 51.935 57.985 53.815C57.985 55.695 56.465 57.215 54.585 57.215ZM10.935 6.785C12.815 6.785 14.335 8.305 14.335 10.185C14.335 12.065 12.815 13.585 10.935 13.585C9.055 13.585 7.535 12.065 7.535 10.185C7.535 8.305 9.055 6.785 10.935 6.785ZM7.535 53.805C7.535 51.925 9.055 50.405 10.935 50.405C12.815 50.405 14.335 51.925 14.335 53.805C14.335 55.685 12.815 57.205 10.935 57.205C9.055 57.205 7.535 55.685 7.535 53.805ZM140.885 18.645L134.025 35.275H136.075L137.975 30.535H145.865L147.775 35.275H149.805L142.965 18.645H140.885ZM138.535 29.155L141.675 21.325C141.765 21.115 141.825 20.925 141.915 20.685C142.005 20.925 142.075 21.115 142.165 21.325L145.325 29.155H138.535ZM106.675 18.645L99.815 35.275H101.865C101.885 35.235 102.735 33.115 103.765 30.535H111.625C112.955 33.855 113.525 35.245 113.585 35.275H115.615L108.775 18.645H106.675ZM104.315 29.155C105.815 25.405 107.455 21.325 107.465 21.325C107.555 21.115 107.615 20.925 107.705 20.685C107.795 20.925 107.865 21.115 107.955 21.325C109.245 24.565 110.265 27.135 111.075 29.155H104.315ZM118.345 18.645H131.305V20.545H125.765V35.275H123.875V20.545H118.345V18.645ZM87.755 18.645H82.585V35.275H87.755C93.315 35.275 96.085 31.755 96.085 26.955C96.085 22.155 93.315 18.645 87.755 18.645ZM87.755 33.375H84.475V20.545H87.755C92.005 20.545 94.165 22.965 94.165 26.955C94.165 30.945 92.005 33.375 87.755 33.375ZM238.655 18.645H240.545V35.275H238.655V18.645ZM232.675 34.275C232.675 35.085 232.135 35.485 231.505 35.485C230.875 35.485 230.305 35.085 230.305 34.275C230.305 33.495 230.875 33.085 231.505 33.085C232.135 33.085 232.675 33.495 232.675 34.275ZM254.775 18.355C249.265 18.355 246.545 22.655 246.545 26.955C246.545 31.255 249.265 35.555 254.775 35.555C260.285 35.555 263.015 31.255 263.015 26.955C263.015 22.655 260.285 18.355 254.775 18.355ZM254.775 33.655C250.505 33.655 248.455 30.375 248.455 26.955C248.455 23.535 250.505 20.255 254.775 20.255C259.055 20.255 261.095 23.535 261.095 26.955C261.095 30.375 259.055 33.655 254.775 33.655ZM220.035 26.715L226.105 35.275H223.855L218.905 28.315L213.935 35.275H211.685L217.785 26.715L212.025 18.645H214.275L218.905 25.125L223.515 18.645H225.765L220.035 26.715ZM160.535 26.235L167.605 35.275H165.245L159.255 27.615L156.635 30.435C156.645 33.135 156.645 35.235 156.645 35.275H154.765V18.645H156.645C156.635 18.645 156.635 23.405 156.635 27.835L165.135 18.645H167.565L160.535 26.235ZM184.085 18.645H185.975V35.275H184.225L174.755 21.965V35.275H172.865V18.645H174.625L184.085 31.925V18.645ZM200.215 18.355C194.705 18.355 191.985 22.655 191.985 26.955C191.985 31.255 194.705 35.555 200.215 35.555C205.725 35.555 208.445 31.255 208.445 26.955C208.445 22.655 205.725 18.355 200.215 18.355ZM200.215 33.655C195.945 33.655 193.895 30.375 193.895 26.955C193.895 23.535 195.945 20.255 200.215 20.255C204.485 20.255 206.535 23.535 206.535 26.955C206.535 30.375 204.485 33.655 200.215 33.655Z" fill="#051657"/>
<path d="M266.839 16.815V12.6218H268.85C269.062 12.6218 269.267 12.6729 269.464 12.7752C269.665 12.8737 269.829 13.0214 269.958 13.2184C270.091 13.4116 270.157 13.6502 270.157 13.9343C270.157 14.2184 270.089 14.4646 269.952 14.6729C269.82 14.8775 269.649 15.0347 269.441 15.1445C269.237 15.2544 269.024 15.3093 268.805 15.3093H267.248V14.7354H268.612C268.805 14.7354 268.977 14.6672 269.129 14.5309C269.284 14.3907 269.362 14.1919 269.362 13.9343C269.362 13.6691 269.284 13.4797 269.129 13.3661C268.977 13.2525 268.81 13.1956 268.629 13.1956H267.572V16.815H266.839ZM269.282 14.8661L270.327 16.815H269.509L268.492 14.8661H269.282ZM268.379 19.315C267.75 19.315 267.161 19.1975 266.612 18.9627C266.062 18.7278 265.579 18.4021 265.163 17.9854C264.746 17.5688 264.42 17.0858 264.185 16.5366C263.951 15.9873 263.833 15.3983 263.833 14.7695C263.833 14.1407 263.951 13.5517 264.185 13.0025C264.42 12.4532 264.746 11.9703 265.163 11.5536C265.579 11.1369 266.062 10.8112 266.612 10.5763C267.161 10.3415 267.75 10.2241 268.379 10.2241C269.007 10.2241 269.596 10.3415 270.146 10.5763C270.695 10.8112 271.178 11.1369 271.595 11.5536C272.011 11.9703 272.337 12.4532 272.572 13.0025C272.807 13.5517 272.924 14.1407 272.924 14.7695C272.924 15.3983 272.807 15.9873 272.572 16.5366C272.337 17.0858 272.011 17.5688 271.595 17.9854C271.178 18.4021 270.695 18.7278 270.146 18.9627C269.596 19.1975 269.007 19.315 268.379 19.315ZM268.379 18.4684C269.06 18.4684 269.68 18.3017 270.237 17.9684C270.797 17.635 271.244 17.19 271.577 16.6331C271.911 16.0725 272.077 15.4513 272.077 14.7695C272.077 14.0877 271.911 13.4684 271.577 12.9116C271.244 12.3509 270.797 11.904 270.237 11.5706C269.68 11.2373 269.06 11.0706 268.379 11.0706C267.697 11.0706 267.076 11.2373 266.515 11.5706C265.958 11.904 265.513 12.3509 265.18 12.9116C264.846 13.4684 264.68 14.0877 264.68 14.7695C264.68 15.4513 264.846 16.0725 265.18 16.6331C265.513 17.19 265.958 17.635 266.515 17.9684C267.076 18.3017 267.697 18.4684 268.379 18.4684Z" fill="#051657"/>
</svg>
