<svg width="154" height="36" viewBox="0 0 154 36" fill="none" xmlns="http://www.w3.org/2000/svg"><path d="M154 24.266h-2.757l-4.422-5.822-2.017 2.07v3.752h-2.276V11.328h2.276v6.506l6.162-6.506h2.794l-5.385 5.563L154 24.266ZM136.031 11.328h2.239v12.938h-1.907l-7.142-9.204v9.204h-2.239V11.328h2.11l6.939 8.945v-8.945ZM117.043 13.952l-2.221 5.175h4.46l-2.239-5.175Zm6.791 10.314h-2.406l-1.313-3.124h-6.126l-1.332 3.124h-2.331l5.699-13.03h2.11l5.699 13.03ZM105.661 20.458c0-1.109-.87-1.756-2.665-1.756h-3.608v3.549h3.775c1.554 0 2.498-.61 2.498-1.793Zm-.722-5.452c0-1.054-.814-1.663-2.276-1.663h-3.275v3.437h3.108c1.463 0 2.443-.573 2.443-1.774Zm2.277-.37c0 1.59-.889 2.403-1.851 2.902 1.518.518 2.572 1.386 2.572 3.16 0 2.33-1.906 3.568-4.793 3.568h-5.995V11.328h5.81c2.609 0 4.257 1.275 4.257 3.308ZM87.21 13.952l-2.22 5.175h4.46l-2.24-5.175Zm6.791 10.314h-2.406l-1.313-3.124h-6.125l-1.332 3.124h-2.332l5.7-13.03h2.109l5.7 13.03ZM75.83 24.266h-2.294V13.435h-4.109v-2.107h10.511v2.107H75.83v10.83ZM62.081 13.952l-2.22 5.175h4.46l-2.24-5.175Zm6.791 10.314h-2.405l-1.314-3.124h-6.125l-1.332 3.124h-2.332l5.7-13.03h2.109l5.7 13.03ZM46.796 13.398h-2.553v8.798h2.553c2.72 0 4.496-1.83 4.496-4.38 0-2.551-1.776-4.418-4.496-4.418Zm0 10.868h-4.83V11.328h4.83c4.07 0 6.883 2.79 6.883 6.45s-2.812 6.488-6.883 6.488Z" fill="#ffffff"/><path d="M30.467 24.99 19.28 33.276c-.488.368-.913.03-.913.03-.316-.213-.281-.648-.281-.648v-7.152l8.19-6.041.646.458 3.52 2.645c.503.346.783.774.788 1.204.004.43-.267.863-.762 1.22ZM3.61 33.249c-.51.384-.948.025-.948.025-.33-.222-.296-.674-.296-.674h-.002V3.366h.002s-.033-.453.296-.675c0 0 .439-.358.948.026l12.156 9.028v.986L15.74 24.3 3.61 33.248Zm20.64-15.224-6.164 4.547V13.47l5.467 4.06.697.494Zm-6.164-8.452-.001-6.205s-.035-.434.28-.648c0 0 .426-.338.914.03l11.188 8.285c.495.357.766.79.762 1.22-.005.43-.285.857-.787 1.203l-4.183 3.085-.643-.455-7.53-5.58v-.935Zm13.697 11.051L29 18.487l-.713-.507 3.496-2.579c1.137-.783 1.797-1.921 1.81-3.123.012-1.201-.624-2.353-1.744-3.16L20.665.84C19.488-.008 18.25-.205 17.268.297c-.982.502-1.545 1.62-1.545 3.07l.043 4.515v.905L4.96.78C3.774-.045 2.53-.226 1.547.287.564.8 0 1.922 0 3.367v29.231c0 1.445.564 2.568 1.547 3.08.982.513 2.227.333 3.414-.493l10.774-7.946-.011 5.418c0 1.45.563 2.569 1.544 3.07.982.503 2.22.305 3.397-.543l11.184-8.278c1.12-.806 1.756-1.958 1.743-3.16-.012-1.201-.672-2.34-1.809-3.123Z" fill="#F35E2B"/></svg>