<svg xmlns="http://www.w3.org/2000/svg" xmlns:xlink="http://www.w3.org/1999/xlink" viewBox="0 0 245.22 48.72"><defs><style>.l{clip-path:url(#h);}.m{fill:url(#g);}.n{fill:url(#i);}.o{clip-path:url(#d);}.p{fill:url(#e);}.q{fill:none;}.r{fill:#ff6558;}.s{clip-path:url(#f);}.t{clip-path:url(#j);}.u{fill:#072644;}.v{fill:url(#k);}</style><clipPath id="d"><path class="q" d="M38,6.93h.05c2.8,.63,3.69,4.16,1.58,6.1-1.15,1.06-2.79,1.96-4.78,2.63-.76,.26-1.56,.48-2.41,.66-.68,.15-1.38,.27-2.1,.37-.22,.85-.4,1.73-.55,2.64-.11,.67-.19,1.36-.25,2.06-.01,.11-.02,.22-.03,.33,.07,0,.13,0,.2,0,.97-.03,1.93-.08,2.87-.16h0c1.23-.11,2.44-.26,3.63-.45,.87-.14,1.73-.35,2.56-.65,.43-.15,.85-.32,1.26-.5,1.47-.65,2.78-1.47,3.89-2.43,.87-1.11,1.39-2.51,1.39-4.02h0c0-2.92-1.94-5.4-4.63-6.28-.67-.22-1.39-.34-2.13-.34-.19,0-.38,0-.56,.02"></path></clipPath><linearGradient id="e" x1="-266.01" y1="-5467.87" x2="-265.75" y2="-5467.87" gradientTransform="translate(16461.11 337767.61) scale(61.77)" gradientUnits="userSpaceOnUse"><stop offset="0" stop-color="#8c2a26"></stop><stop offset=".09" stop-color="#8c2a26"></stop><stop offset=".3" stop-color="#ae3b34"></stop><stop offset=".61" stop-color="#d95147"></stop><stop offset=".86" stop-color="#f45f53"></stop><stop offset="1" stop-color="#ff6558"></stop></linearGradient><clipPath id="f"><path class="q" d="M29.54,27.32c.06,.7,.14,1.39,.25,2.06,.14,.91,.33,1.8,.55,2.64,.72,.1,1.42,.22,2.1,.37,.85,.18,1.65,.41,2.41,.66,1.99,.67,3.64,1.58,4.78,2.63,2.11,1.94,1.22,5.47-1.58,6.09h-.05c.19,.03,.37,.03,.56,.03,.74,0,1.46-.12,2.13-.34,2.69-.87,4.63-3.35,4.63-6.27h0c0-1.51-.52-2.9-1.39-4.02-1.11-.96-2.42-1.79-3.89-2.43-.41-.18-.83-.35-1.26-.5-.83-.29-1.69-.51-2.56-.65-1.18-.19-2.39-.34-3.63-.45h0c-.95-.08-1.9-.13-2.87-.16-.07,0-.14,0-.2,0,0,.11,.02,.22,.03,.33"></path></clipPath><linearGradient id="g" y1="-5468.82" y2="-5468.82" gradientTransform="translate(16461.11 337846.07) scale(61.77)" xlink:href="#e"></linearGradient><clipPath id="h"><path class="q" d="M7.06,7.24c-2.69,.87-4.63,3.35-4.63,6.27h0c0,1.51,.52,2.9,1.39,4.02,1.11,.96,2.42,1.79,3.89,2.43,.41,.18,.83,.35,1.26,.5,.83,.29,1.69,.51,2.56,.65,1.18,.19,2.39,.34,3.62,.45h0c.95,.08,1.9,.13,2.87,.16,.07,0,.14,0,.2,0,0-.11-.02-.22-.03-.33-.06-.7-.14-1.39-.25-2.06-.14-.91-.33-1.8-.55-2.64-.72-.1-1.42-.22-2.1-.37-.85-.18-1.65-.41-2.41-.66-1.99-.67-3.64-1.58-4.78-2.63-2.11-1.94-1.22-5.47,1.58-6.09h.05c-.19-.03-.37-.03-.56-.03-.74,0-1.46,.12-2.13,.34"></path></clipPath><linearGradient id="i" x1="-256.96" y1="-5467.87" x2="-256.7" y2="-5467.87" gradientTransform="translate(-15854 337767.59) rotate(-180) scale(61.77 -61.77)" xlink:href="#e"></linearGradient><clipPath id="j"><path class="q" d="M18.04,26.99c-.97,.03-1.93,.08-2.87,.16h0c-1.23,.11-2.44,.26-3.62,.45-.87,.14-1.73,.36-2.56,.65-.43,.15-.85,.32-1.26,.5-1.47,.65-2.78,1.47-3.89,2.43-.87,1.11-1.39,2.51-1.39,4.02h0c0,2.92,1.94,5.4,4.63,6.28,.67,.22,1.39,.34,2.13,.34,.19,0,.38,0,.56-.02h-.05c-2.8-.63-3.69-4.16-1.58-6.1,1.15-1.06,2.79-1.96,4.78-2.63,.76-.26,1.56-.48,2.41-.66,.68-.15,1.38-.27,2.1-.37,.22-.85,.4-1.73,.55-2.64,.11-.67,.19-1.36,.25-2.06,.01-.11,.02-.22,.03-.33-.07,0-.13,0-.2,0"></path></clipPath><linearGradient id="k" x1="-256.96" y1="-5468.82" x2="-256.7" y2="-5468.82" gradientTransform="translate(-15854 337846.05) rotate(-180) scale(61.77 -61.77)" xlink:href="#e"></linearGradient></defs><g id="a"></g><g id="b"><g id="c"><g><path class="u" d="M46.66,14.15c.54-1.04,.9-2.15,1.03-3.3,.04-.33,.06-.67,.06-1.01h0c0-1.1-.2-2.17-.58-3.18-.66-1.76-1.87-3.25-3.38-4.37C41.99,.95,40.01,.14,38.02,.02c-2.68-.16-5.22,.71-7.42,2.35-3.15,2.33-5.59,6.23-6.73,10.87-1.14-4.64-3.58-8.54-6.73-10.87C14.95,.73,12.41-.14,9.73,.02c-2,.12-3.97,.93-5.77,2.26C2.45,3.41,1.23,4.89,.58,6.66c-.37,1.01-.58,2.08-.58,3.18,0,.34,.02,.68,.06,1.01,.13,1.16,.48,2.27,1.03,3.3,.65,1.25,1.58,2.39,2.73,3.38-.87-1.11-1.39-2.51-1.39-4.02,0-2.92,1.94-5.4,4.63-6.27,.67-.22,1.39-.34,2.13-.34,.19,0,.38,0,.56,.02,.23,.02,.46,.05,.69,.09,1.91,.59,3.62,2.23,4.96,4.58,.16,.28,.32,.57,.46,.87,.62,1.25,1.14,2.67,1.54,4.22,.22,.85,.4,1.73,.55,2.64,.05,.34,.1,.69,.14,1.04,.15,1.28,.22,2.61,.22,3.98,0,1.58-.1,3.11-.3,4.57-.02,.15-.04,.3-.07,.45-.14,.91-.33,1.8-.55,2.64-.4,1.55-.92,2.97-1.54,4.22-.15,.3-.3,.59-.46,.87-1.34,2.35-3.05,3.99-4.96,4.58-.23,.04-.46,.07-.69,.09-.19,.02-.37,.02-.56,.02-.74,0-1.46-.12-2.13-.34-2.69-.87-4.63-3.35-4.63-6.27,0-1.51,.52-2.9,1.39-4.02-1.15,.99-2.08,2.13-2.73,3.38-.54,1.04-.9,2.15-1.03,3.3-.04,.33-.06,.67-.06,1.01,0,1.1,.2,2.17,.58,3.18,.66,1.76,1.87,3.25,3.38,4.37,1.8,1.34,3.78,2.14,5.77,2.26,2.68,.16,5.22-.71,7.42-2.35,3.15-2.33,5.59-6.23,6.73-10.87,1.14,4.64,3.58,8.54,6.73,10.87,2.2,1.63,4.74,2.51,7.42,2.35,2-.12,3.97-.93,5.77-2.26,1.51-1.12,2.73-2.61,3.38-4.37,.38-1.01,.58-2.08,.58-3.18h0c0-.34-.02-.68-.06-1.01-.13-1.16-.48-2.27-1.03-3.3-.65-1.25-1.58-2.39-2.73-3.38,.87,1.11,1.39,2.51,1.39,4.02,0,2.92-1.94,5.4-4.63,6.27-.67,.22-1.39,.34-2.13,.34-.19,0-.38,0-.56-.02-.23-.02-.46-.05-.69-.09-1.91-.59-3.62-2.23-4.96-4.58-.16-.28-.32-.57-.46-.87-.62-1.25-1.14-2.67-1.54-4.22-.22-.85-.4-1.73-.55-2.64-.02-.15-.05-.3-.07-.45-.2-1.46-.29-2.99-.3-4.57,0-1.37,.08-2.7,.22-3.98,.04-.35,.09-.7,.14-1.04,.14-.91,.33-1.8,.55-2.64,.4-1.55,.92-2.97,1.54-4.22,.15-.3,.3-.59,.46-.87,1.34-2.35,3.05-3.99,4.96-4.58,.23-.04,.46-.07,.69-.09,.19-.02,.37-.02,.56-.02,.74,0,1.46,.12,2.13,.34,2.69,.87,4.63,3.35,4.63,6.27,0,1.51-.52,2.9-1.39,4.02,1.15-.99,2.08-2.13,2.73-3.38"></path><g class="o"><rect class="p" x="29.51" y="6.91" width="15.81" height="14.82"></rect></g><g class="s"><rect class="m" x="29.51" y="26.99" width="15.81" height="14.82"></rect></g><g class="l"><rect class="n" x="2.42" y="6.91" width="15.81" height="14.82"></rect></g><g class="t"><rect class="v" x="2.42" y="26.99" width="15.81" height="14.82"></rect></g><polygon class="r" points="61.21 35.82 58 35.82 58 34.55 65.77 34.55 65.77 35.82 62.56 35.82 62.56 44.52 61.21 44.52 61.21 35.82"></polygon><polygon class="r" points="77.06 34.55 83.49 34.55 83.49 35.82 78.41 35.82 78.41 38.79 83.14 38.79 83.14 40.05 78.41 40.05 78.41 43.25 83.75 43.25 83.75 44.52 77.06 44.52 77.06 34.55"></polygon><path class="r" d="M102.46,36.7c-.28-.37-.64-.65-1.07-.84-.43-.2-.88-.3-1.34-.3-.56,0-1.07,.11-1.53,.32-.46,.21-.84,.5-1.17,.87-.32,.37-.58,.8-.75,1.29-.18,.49-.27,1.02-.27,1.58,0,.53,.08,1.02,.25,1.49,.17,.47,.41,.88,.73,1.24,.32,.36,.71,.64,1.17,.84,.46,.21,.98,.31,1.56,.31s1.07-.12,1.51-.35c.43-.23,.8-.56,1.1-.99l1.14,.86c-.08,.1-.21,.25-.39,.44-.19,.19-.44,.38-.75,.58-.31,.19-.68,.36-1.12,.51-.44,.15-.94,.22-1.51,.22-.79,0-1.5-.15-2.13-.45-.63-.3-1.17-.69-1.62-1.18-.45-.49-.79-1.04-1.02-1.65-.23-.61-.35-1.24-.35-1.87,0-.77,.13-1.48,.38-2.13,.25-.65,.61-1.22,1.06-1.69,.45-.47,1-.84,1.64-1.11,.64-.26,1.34-.39,2.11-.39,.66,0,1.3,.13,1.94,.38,.63,.25,1.15,.64,1.56,1.17l-1.13,.86Z"></path><polygon class="r" points="115.28 34.55 116.64 34.55 116.64 38.69 121.8 38.69 121.8 34.55 123.15 34.55 123.15 44.52 121.8 44.52 121.8 39.96 116.64 39.96 116.64 44.52 115.28 44.52 115.28 34.55"></polygon><polygon class="r" points="135.57 34.55 137.35 34.55 142.84 42.74 142.86 42.74 142.86 34.55 144.22 34.55 144.22 44.52 142.5 44.52 136.95 36.32 136.92 36.32 136.92 44.52 135.57 44.52 135.57 34.55"></polygon><path class="r" d="M161.21,44.77c-.76,0-1.46-.13-2.1-.4-.64-.27-1.18-.64-1.64-1.11-.46-.47-.81-1.02-1.07-1.66-.26-.64-.39-1.33-.39-2.07s.13-1.43,.39-2.07c.26-.64,.61-1.19,1.07-1.66,.46-.47,1-.84,1.64-1.11,.64-.27,1.34-.4,2.1-.4s1.46,.13,2.1,.4c.64,.27,1.18,.64,1.64,1.11,.46,.47,.81,1.02,1.07,1.66,.26,.64,.39,1.33,.39,2.07s-.13,1.43-.39,2.07c-.26,.64-.61,1.19-1.07,1.66-.46,.47-1,.84-1.64,1.11-.64,.27-1.34,.4-2.1,.4m0-1.27c.57,0,1.09-.11,1.55-.32,.46-.21,.85-.5,1.18-.85,.33-.36,.58-.78,.76-1.26,.18-.48,.27-1,.27-1.54s-.09-1.06-.27-1.54c-.18-.48-.43-.9-.76-1.26-.33-.36-.72-.64-1.18-.85-.46-.21-.98-.32-1.55-.32s-1.09,.11-1.55,.32c-.46,.21-.85,.5-1.18,.85-.33,.36-.58,.78-.76,1.26-.18,.48-.27,1-.27,1.54s.09,1.06,.27,1.54c.18,.48,.43,.9,.76,1.26,.33,.36,.72,.64,1.18,.85,.46,.21,.98,.32,1.55,.32"></path><polygon class="r" points="178.2 34.55 179.55 34.55 179.55 43.25 184.13 43.25 184.13 44.52 178.2 44.52 178.2 34.55"></polygon><path class="r" d="M199.94,44.77c-.76,0-1.46-.13-2.1-.4-.64-.27-1.18-.64-1.64-1.11-.46-.47-.81-1.02-1.07-1.66-.26-.64-.39-1.33-.39-2.07s.13-1.43,.39-2.07c.26-.64,.61-1.19,1.07-1.66,.46-.47,1-.84,1.64-1.11,.64-.27,1.34-.4,2.1-.4s1.46,.13,2.1,.4c.64,.27,1.18,.64,1.64,1.11,.46,.47,.81,1.02,1.07,1.66,.26,.64,.39,1.33,.39,2.07s-.13,1.43-.39,2.07c-.26,.64-.61,1.19-1.07,1.66-.46,.47-1,.84-1.64,1.11-.64,.27-1.34,.4-2.1,.4m0-1.27c.57,0,1.09-.11,1.55-.32,.46-.21,.85-.5,1.18-.85,.33-.36,.58-.78,.76-1.26,.18-.48,.27-1,.27-1.54s-.09-1.06-.27-1.54c-.18-.48-.43-.9-.76-1.26-.33-.36-.72-.64-1.18-.85-.46-.21-.98-.32-1.55-.32s-1.09,.11-1.55,.32c-.46,.21-.85,.5-1.18,.85-.33,.36-.58,.78-.76,1.26-.18,.48-.27,1-.27,1.54s.09,1.06,.27,1.54c.18,.48,.43,.9,.76,1.26,.33,.36,.72,.64,1.18,.85,.46,.21,.98,.32,1.55,.32"></path><path class="r" d="M225.42,38.94v4.91c-.24,.15-.52,.28-.83,.39-.31,.11-.63,.21-.96,.29-.33,.08-.67,.14-1.01,.18-.34,.04-.66,.06-.96,.06-.84,0-1.6-.14-2.26-.42-.66-.28-1.22-.66-1.68-1.14-.46-.48-.8-1.03-1.04-1.67-.24-.63-.36-1.3-.36-2.01,0-.74,.13-1.43,.39-2.07,.26-.64,.61-1.19,1.07-1.66,.46-.47,1-.84,1.64-1.11,.64-.27,1.34-.4,2.1-.4,.92,0,1.67,.11,2.25,.34,.58,.23,1.07,.55,1.46,.95l-.96,1.03c-.41-.39-.85-.67-1.31-.82-.46-.15-.94-.23-1.45-.23-.57,0-1.09,.11-1.55,.32-.46,.21-.85,.5-1.18,.85-.33,.36-.58,.78-.76,1.26-.18,.48-.27,1-.27,1.54s.1,1.09,.3,1.57c.2,.48,.47,.9,.82,1.26,.35,.36,.76,.64,1.22,.84,.47,.2,.98,.3,1.53,.3,.48,0,.93-.04,1.36-.13,.43-.09,.79-.22,1.09-.39v-2.77h-2.21v-1.27h3.56Z"></path><polygon class="r" points="240.09 40.27 236.32 34.55 238.05 34.55 240.77 38.93 243.57 34.55 245.22 34.55 241.44 40.27 241.44 44.52 240.09 44.52 240.09 40.27"></polygon><path class="u" d="M79.46,26.99h-6.05l-3.84-5.98c-1.09-1.66-2.62-3.07-4.13-3.07h-2.46v9.06h-4.99V4.59h4.99V13.52h2.56c1.57,0,2.98-1.41,4.06-3.1l3.71-5.82h5.79l-5.47,7.97c-.96,1.41-1.79,2.4-3.04,3.23,1.25,.7,2.3,1.76,3.07,2.85l5.79,8.35Z"></path><path class="u" d="M100.35,21.71h-11.26l-1.73,5.28h-5.38l6.27-17.92c1.34-3.84,3.71-4.8,6.46-4.8s5.22,.96,6.56,4.8l6.27,17.92h-5.47l-1.73-5.28Zm-1.44-4.32l-2.3-7.01c-.32-.99-1.06-1.41-1.89-1.41s-1.57,.42-1.89,1.41l-2.3,7.01h8.38Z"></path><path class="u" d="M133.18,26.99h-6.24l-6.11-7.65v-2.98h1.7c3.74,0,5.15-1.25,5.15-3.71s-1.41-3.74-5.15-3.74h-4.8V26.99h-4.99V4.59h10.11c6.69,0,9.95,3.17,9.95,8.06,0,3.58-1.76,6.27-5.34,7.42l5.73,6.91Z"></path><path class="u" d="M155.26,21.71h-11.26l-1.73,5.28h-5.38l6.27-17.92c1.34-3.84,3.71-4.8,6.46-4.8s5.22,.96,6.56,4.8l6.27,17.92h-5.47l-1.73-5.28Zm-1.44-4.32l-2.3-7.01c-.32-.99-1.06-1.41-1.89-1.41s-1.57,.42-1.89,1.41l-2.3,7.01h8.38Z"></path><path class="u" d="M171.06,22.54l-5.89-17.95h5.47l5.09,16.64c.32,1.06,1.06,1.41,1.89,1.41s1.57-.35,1.89-1.41l5.09-16.64h5.38l-5.89,17.95c-1.25,3.84-3.71,4.8-6.46,4.8s-5.31-.96-6.56-4.8"></path><path class="u" d="M211.06,21.71h-11.26l-1.73,5.28h-5.38l6.27-17.92c1.34-3.84,3.71-4.8,6.46-4.8s5.22,.96,6.56,4.8l6.27,17.92h-5.47l-1.73-5.28Zm-1.44-4.32l-2.3-7.01c-.32-.99-1.06-1.41-1.89-1.41s-1.57,.42-1.89,1.41l-2.3,7.01h8.38Z"></path><polygon class="u" points="244.75 4.59 244.75 26.99 240.98 26.99 228.11 12.27 228.11 26.99 223.44 26.99 223.44 4.59 227.22 4.59 240.08 19.31 240.08 4.59 244.75 4.59"></polygon></g></g></g></svg>